<?xml version="1.0" encoding="UTF-8"?>
<svg version="1.1" xmlns="http://www.w3.org/2000/svg" width="600" height="300">
<path d="M0 0 C1.00329346 0.00829834 2.00658691 0.01659668 3.0402832 0.02514648 C19.34076733 0.39420909 32.73127412 6.29647133 44.6875 17.4375 C43.10188362 21.29343074 40.62240046 23.76966291 37.6875 26.6875 C36.800625 27.57953125 35.91375 28.4715625 35 29.390625 C32.6875 31.4375 32.6875 31.4375 30.6875 31.4375 C30.6875 30.7775 30.6875 30.1175 30.6875 29.4375 C30.12804687 29.1590625 29.56859375 28.880625 28.9921875 28.59375 C27.43071284 27.8103661 25.87351132 27.01841672 24.3203125 26.21875 C23.49273437 25.7959375 22.66515625 25.373125 21.8125 24.9375 C20.99007812 24.5146875 20.16765625 24.091875 19.3203125 23.65625 C8.71572687 18.74730235 -3.10928253 18.25761173 -14.3125 21.4375 C-27.16671666 26.28444029 -35.63904568 34.00135358 -41.9375 46.12890625 C-46.85202503 57.9544821 -47.26321728 71.76751103 -42.56640625 83.73046875 C-37.05181989 95.6357907 -29.71020381 103.64019135 -17.6796875 109.2421875 C-5.2684138 113.64804568 8.06464724 113.54528566 20.16992188 108.24682617 C29.46190528 103.8202423 35.48098279 98.29516581 39.125 88.625 C40.1058298 85.57695045 40.91011648 82.54703409 41.6875 79.4375 C27.8275 79.1075 13.9675 78.7775 -0.3125 78.4375 C-0.3125 72.1675 -0.3125 65.8975 -0.3125 59.4375 C19.8175 59.4375 39.9475 59.4375 60.6875 59.4375 C63.18497008 76.91979058 61.15649071 93.83025084 50.40625 108.29296875 C48.31919974 110.89703828 46.16662002 113.20024535 43.6875 115.4375 C43.13835937 115.97890625 42.58921875 116.5203125 42.0234375 117.078125 C30.65679801 127.83667266 16.24186588 132.03262798 0.875 131.875 C-0.17598877 131.86670166 -1.22697754 131.85840332 -2.30981445 131.84985352 C-21.70665895 131.42964588 -37.02368819 123.21487107 -50.3125 109.4375 C-61.46456254 97.26593921 -66.91049079 82.61320547 -66.8125 66.25 C-66.80750488 65.15228271 -66.80250977 64.05456543 -66.79736328 62.92358398 C-66.41028754 44.80443506 -58.86778872 31.25300196 -46.3125 18.4375 C-45.72082031 17.80972656 -45.12914063 17.18195312 -44.51953125 16.53515625 C-40.34696002 12.47311671 -35.64528992 9.81649785 -30.5 7.1875 C-29.86054443 6.8579834 -29.22108887 6.5284668 -28.56225586 6.18896484 C-19.33356391 1.68688306 -10.2306329 -0.11021209 0 0 Z " fill="#2F74F1" transform="translate(109.3125,46.5625)"/>
<path d="M0 0 C0.94875 0.763125 1.8975 1.52625 2.875 2.3125 C3.205 0.6625 3.535 -0.9875 3.875 -2.6875 C9.815 -2.6875 15.755 -2.6875 21.875 -2.6875 C21.94301465 8.18786777 21.9979533 19.06309224 22.03043652 29.93862534 C22.04603372 34.98960071 22.06716233 40.04042192 22.10131836 45.09130859 C22.13412517 49.97372179 22.15189763 54.85598751 22.15963173 59.7385025 C22.16513721 61.59305388 22.17588712 63.44759799 22.19219017 65.30208588 C22.32117741 80.59495827 21.70624744 94.69957906 10.80078125 106.5703125 C1.00605091 115.83513597 -9.01746922 117.74727156 -22.11328125 117.51953125 C-32.62904212 117.11951514 -40.7729264 112.61427216 -48.203125 105.25390625 C-56.125 96.44997374 -56.125 96.44997374 -56.125 91.3125 C-53.88064555 90.27733652 -51.63093133 89.25935023 -49.375 88.25 C-48.74078125 87.95544922 -48.1065625 87.66089844 -47.453125 87.35742188 C-44.79927249 86.18253925 -42.70812445 85.27077895 -39.77734375 85.48046875 C-36.35072034 87.2059316 -35.27615314 90.85904058 -34.125 94.3125 C-32.30057666 95.46211683 -32.30057666 95.46211683 -30.125 96.3125 C-29.47402344 96.60511719 -28.82304687 96.89773437 -28.15234375 97.19921875 C-21.26196718 99.8394565 -14.74152541 100.11124652 -7.7890625 97.40234375 C-2.54905175 94.52910365 -0.04185145 90.90793343 1.875 85.3125 C3.0452805 80.631378 2.95770123 76.10917134 2.875 71.3125 C2.05 72.075625 1.225 72.83875 0.375 73.625 C-7.24688741 79.8068073 -15.70302732 80.27516339 -25.15917969 79.5625 C-35.43715873 78.25541474 -44.91780494 71.68659633 -51.1953125 63.66796875 C-56.84726433 55.21368934 -59.70768827 47.18007762 -59.625 37 C-59.61927979 36.17258301 -59.61355957 35.34516602 -59.60766602 34.49267578 C-59.28431386 23.32450602 -54.80787024 14.35091554 -47.125 6.3125 C-34.41763984 -5.61396093 -15.12152404 -10.73140416 0 0 Z M-34.4375 19.5625 C-40.05252812 26.79930736 -41.1961655 34.26710246 -40.125 43.3125 C-37.74611855 51.80485099 -32.62619141 56.84370512 -25.125 61.3125 C-18.76802765 63.77326349 -12.51228737 62.24945166 -6.4921875 59.6328125 C-0.51553754 56.29930147 2.56029787 51.17103903 4.40625 44.69921875 C5.86112284 37.29149119 5.33552383 30.08732834 1.875 23.3125 C-1.5405125 18.37898195 -5.26058784 14.08288858 -11.125 12.3125 C-20.64417851 11.24882942 -27.78076318 12.45004525 -34.4375 19.5625 Z " fill="#2F74F1" transform="translate(419.125,98.6875)"/>
<path d="M0 0 C7.60274066 6.20868974 13.79336262 14.99320997 15.40234375 24.84375 C16.67195482 39.72641312 14.65966327 51.60786081 4.94921875 63.32421875 C-3.34950217 72.0776641 -12.85814012 76.24585695 -24.85229492 76.77197266 C-36.82103833 76.99857323 -47.09259205 74.21937536 -56.390625 66.3203125 C-65.44741304 57.22807715 -69.85289679 46.32778933 -70.48828125 33.58984375 C-70.10518283 21.24228714 -65.18214185 11.48911122 -56.87109375 2.6484375 C-40.93526689 -12.31019243 -17.41027324 -12.28122384 0 0 Z M-44.76171875 16.44140625 C-49.63361398 22.761337 -51.13015942 30.51027917 -50.38671875 38.31640625 C-49.00869603 45.35549529 -45.9071057 50.70048948 -40.38671875 55.31640625 C-34.51761744 58.95584897 -28.88207096 60.02109942 -22.0625 59.046875 C-15.61349607 57.286344 -10.99305861 53.71358112 -7.38671875 48.12890625 C-3.30678111 40.94651603 -3.05933242 31.76968129 -5 23.796875 C-7.68763498 17.79409556 -12.93697609 12.9829486 -18.8125 10.14453125 C-28.13042278 7.14695973 -37.97844382 9.39146695 -44.76171875 16.44140625 Z " fill="#FAAE05" transform="translate(337.38671875,101.68359375)"/>
<path d="M0 0 C8.05282554 7.30372549 12.82708038 17.24432772 13.65234375 27.984375 C13.99714442 41.72123372 10.57129698 52.65860847 1.375 63.0625 C-8.27892403 72.19576296 -20.41640341 74.87232755 -33.21484375 74.65234375 C-42.77786068 74.23941864 -50.56686024 70.71510389 -57.625 64.375 C-58.24117187 63.85035156 -58.85734375 63.32570313 -59.4921875 62.78515625 C-66.51847444 56.37706193 -71.44930465 46.80722776 -71.9609375 37.23828125 C-72.23946868 23.24285452 -69.65863796 11.96268196 -59.8125 1.4375 C-42.55035474 -14.71095847 -18.30944714 -14.08731299 0 0 Z M-46.9375 14.625 C-52.3230615 21.55138973 -53.68800679 28.70183099 -52.625 37.375 C-50.88945075 44.4618261 -47.63674059 50.12308131 -41.625 54.375 C-35.66322452 57.3295082 -29.74115561 58.4357273 -23.21484375 56.75390625 C-16.62905149 54.51890888 -12.31697991 51.29648578 -8.625 45.375 C-4.88598589 37.57352765 -4.8613899 29.83116875 -7.5 21.66796875 C-10.33929251 15.09224616 -14.2841568 11.59291855 -20.625 8.375 C-30.43997636 5.10334121 -39.92615593 7.13366171 -46.9375 14.625 Z " fill="#E73224" transform="translate(247.625,103.625)"/>
<path d="M0 0 C6.60963176 5.48697669 12.75946761 12.87116948 13.875 21.625 C13.91625 22.73875 13.9575 23.8525 14 25 C8.80686249 27.65395747 3.6050338 30.08413277 -1.796875 32.27734375 C-2.51176086 32.57057022 -3.22664673 32.86379669 -3.9631958 33.16590881 C-6.22429441 34.09266104 -8.48707507 35.01521751 -10.75 35.9375 C-12.25011923 36.5511409 -13.7501201 37.16507123 -15.25 37.77929688 C-17.44472986 38.6780523 -19.63953198 39.57662334 -21.83483887 40.47396851 C-27.90163382 42.9547337 -33.95444749 45.46785821 -40 48 C-36.69019621 53.73699324 -33.83478491 56.19300544 -27.54296875 58.33984375 C-20.00673939 60.29625352 -13.79283537 58.77253105 -7 55 C-5.16607817 53.41024983 -5.16607817 53.41024983 -3.625 51.6875 C-2.75875 50.800625 -1.8925 49.91375 -1 49 C2.77515291 49.22879715 5.66352502 51.54159377 8.75 53.5625 C9.73484375 54.20316406 10.7196875 54.84382813 11.734375 55.50390625 C12.48203125 55.99761719 13.2296875 56.49132812 14 57 C13.11104507 62.86444895 8.37741722 66.40604097 4 70 C-7.86968234 77.15148361 -20.12854655 79.12345011 -33.72265625 76.19921875 C-44.89902119 72.32279182 -53.54458371 64.47728956 -59 54 C-64.05624822 41.8172287 -64.4730788 29.47140929 -60 17 C-58.24692375 13.47420518 -56.23729601 10.23630251 -54 7 C-53.401875 6.0925 -52.80375 5.185 -52.1875 4.25 C-38.10342471 -10.23647744 -16.05746332 -12.30289987 0 0 Z M-39 16.875 C-43.14335609 22.13949951 -44.08257201 26.37588964 -44 33 C-31.63366553 28.07852659 -19.2952819 23.09648991 -7 18 C-9.4923995 13.53991668 -11.11951667 11.80758642 -16 10 C-24.94103223 7.61915042 -32.72303306 10.09014569 -39 16.875 Z " fill="#E73324" transform="translate(542,101)"/>
<path d="M0 0 C6.27 0 12.54 0 19 0 C19 41.25 19 82.5 19 125 C12.73 125 6.46 125 0 125 C0 83.75 0 42.5 0 0 Z " fill="#239B41" transform="translate(453,51)"/>
<path d="M0 0 C4.186875 -0.061875 8.37375 -0.12375 12.6875 -0.1875 C13.99936279 -0.21481201 15.31122559 -0.24212402 16.6628418 -0.27026367 C17.70609619 -0.27775635 18.74935059 -0.28524902 19.82421875 -0.29296875 C20.88729248 -0.3086792 21.95036621 -0.32438965 23.0456543 -0.34057617 C27.69632568 0.19555196 30.20897615 2.09911173 33.25 5.5625 C36.18702885 9.65336162 36.64439238 13.03280876 36 18 C34.98705341 20.83514941 33.8411618 22.51194352 32 25 C29.35546875 26.1953125 29.35546875 26.1953125 27 27 C27.6496875 28.05960938 28.299375 29.11921875 28.96875 30.2109375 C29.81273123 31.59881775 30.65646864 32.98684629 31.5 34.375 C32.14388672 35.42300781 32.14388672 35.42300781 32.80078125 36.4921875 C36 41.7734375 36 41.7734375 36 44 C32.17400534 44.61270377 28.7987691 44.86216905 25 44 C20.93372547 39.82232069 19.09207846 34.35070759 17 29 C14.69 29 12.38 29 10 29 C10 33.95 10 38.9 10 44 C6.7 44 3.4 44 0 44 C0 29.48 0 14.96 0 0 Z M10 9 C10 12.3 10 15.6 10 19 C12.12472576 19.05386629 14.24983652 19.09273071 16.375 19.125 C18.15003906 19.15980469 18.15003906 19.15980469 19.9609375 19.1953125 C23.11153817 19.32866229 23.11153817 19.32866229 25 17 C25.41666667 14 25.41666667 14 25 11 C21.47320901 8.64880601 19.97120515 8.78556548 15.8125 8.875 C14.72582031 8.89304688 13.63914062 8.91109375 12.51953125 8.9296875 C11.68808594 8.95289063 10.85664062 8.97609375 10 9 Z " fill="#6C6D70" transform="translate(69,209)"/>
<path d="M0 0 C3.3 0 6.6 0 10 0 C11.65 5.61 13.3 11.22 15 17 C16.98 11.39 18.96 5.78 21 0 C23.97 0 26.94 0 30 0 C31.98 5.94 33.96 11.88 36 18 C37.65 12.06 39.3 6.12 41 0 C44.3 0 47.6 0 51 0 C49.2456572 7.50468866 47.18695971 14.83773448 44.875 22.1875 C44.60929199 23.03739502 44.34358398 23.88729004 44.06982422 24.76293945 C43.8173291 25.55659912 43.56483398 26.35025879 43.3046875 27.16796875 C42.9641333 28.23954224 42.9641333 28.23954224 42.61669922 29.33276367 C42 31 42 31 41 32 C39.48071962 32.07179964 37.95832518 32.08392007 36.4375 32.0625 C35.61121094 32.05347656 34.78492188 32.04445312 33.93359375 32.03515625 C33.29550781 32.02355469 32.65742188 32.01195312 32 32 C29.69557475 26.07433507 27.76463072 20.10737442 26 14 C25.5875 15.11375 25.175 16.2275 24.75 17.375 C22.91218125 22.28171227 20.96128794 27.14158113 19 32 C16.03 32 13.06 32 10 32 C7.53394588 25.61102287 5.38298227 19.15199005 3.3125 12.625 C2.99216797 11.62855469 2.67183594 10.63210937 2.34179688 9.60546875 C2.03951172 8.65542969 1.73722656 7.70539063 1.42578125 6.7265625 C1.01453003 5.43613037 1.01453003 5.43613037 0.5949707 4.11962891 C0 2 0 2 0 0 Z " fill="#6C6D70" transform="translate(226,221)"/>
<path d="M0 0 C4.88113432 2.30744532 7.55643986 5.20338195 10 10 C10.63661929 12.99410009 11.0322562 15.93566103 11 19 C10 20 10 20 7.86694336 20.11352539 C6.95050049 20.10828857 6.03405762 20.10305176 5.08984375 20.09765625 C4.10048828 20.09443359 3.11113281 20.09121094 2.09179688 20.08789062 C1.05087891 20.07951172 0.00996094 20.07113281 -1.0625 20.0625 C-2.10728516 20.05798828 -3.15207031 20.05347656 -4.22851562 20.04882812 C-6.8190666 20.03699913 -9.40950559 20.02051689 -12 20 C-11.73323796 21.98491642 -11.73323796 21.98491642 -11 24 C-5.41615387 25.86128204 0.31147144 25.13770571 6 24 C8 27 8 27 7.875 29.0625 C7 31 7 31 5.40625 32.09765625 C2.09137052 33.34073606 -0.84123752 33.33973291 -4.375 33.375 C-5.66148437 33.40335938 -6.94796875 33.43171875 -8.2734375 33.4609375 C-13.20677116 32.8507348 -16.342569 31.06957294 -19.4609375 27.17578125 C-21.96744456 22.06636301 -22.85370462 17.67028503 -22 12 C-18.39057335 1.57276747 -10.19094646 -1.02341895 0 0 Z M-12 10 C-12 10.99 -12 11.98 -12 13 C-7.38 13 -2.76 13 2 13 C-0.34313057 7.88423722 -0.34313057 7.88423722 -3.875 7 C-7.55507864 7 -9.17499978 7.67352923 -12 10 Z " fill="#6C6D70" transform="translate(214,220)"/>
<path d="M0 0 C4.88113432 2.30744532 7.55643986 5.20338195 10 10 C10.63661929 12.99410009 11.0322562 15.93566103 11 19 C10 20 10 20 7.86694336 20.11352539 C6.95050049 20.10828857 6.03405762 20.10305176 5.08984375 20.09765625 C4.10048828 20.09443359 3.11113281 20.09121094 2.09179688 20.08789062 C1.05087891 20.07951172 0.00996094 20.07113281 -1.0625 20.0625 C-2.10728516 20.05798828 -3.15207031 20.05347656 -4.22851562 20.04882812 C-6.8190666 20.03699913 -9.40950559 20.02051689 -12 20 C-10.6910428 23.12197478 -10.6910428 23.12197478 -8 25 C-3.15582302 25.16147257 1.22874338 24.95425132 6 24 C8 27 8 27 7.875 29.0625 C7 31 7 31 5.40234375 32.09375 C-0.31987939 34.25237726 -8.67092141 34.24506471 -14.43359375 32.08984375 C-18.32837255 29.48494868 -20.58798451 26.40216594 -22 22 C-22.90943683 15.13375192 -22.12322984 10.57193222 -18 5 C-12.18064888 -0.2651272 -7.70676608 -0.77394681 0 0 Z M-11 9 C-11.33 10.32 -11.66 11.64 -12 13 C-7.38 13 -2.76 13 2 13 C-0.33858738 7.85479773 -0.33858738 7.85479773 -3.9375 7.0625 C-7.09200062 6.99812244 -8.5224287 7.0730001 -11 9 Z " fill="#6C6D70" transform="translate(129,220)"/>
<path d="M0 0 C0.66 0 1.32 0 2 0 C2.22171875 0.61488281 2.4434375 1.22976562 2.671875 1.86328125 C4.49535403 6.00574992 5.70979304 8.45640175 10.00390625 10.265625 C12.99825408 10.98681385 15.95000186 11.57679452 19 12 C19 14 19 14 16.625 16.5 C15.325625 17.7375 15.325625 17.7375 14 19 C11.67133771 20.88846183 11.67133771 20.88846183 11.8046875 24.0390625 C11.82789063 25.22242188 11.85109375 26.40578125 11.875 27.625 C11.90207031 29.40777344 11.90207031 29.40777344 11.9296875 31.2265625 C11.95289063 32.14179688 11.97609375 33.05703125 12 34 C6.2578125 32.1484375 6.2578125 32.1484375 3.9375 30.8125 C1.21938871 29.67264688 -0.20305431 30.13427872 -3 31 C-5.00781177 31.98422146 -7.00892752 32.98234073 -9 34 C-9.66 34 -10.32 34 -11 34 C-10.84660156 33.14277344 -10.69320313 32.28554687 -10.53515625 31.40234375 C-9.41868251 24.73413081 -9.41868251 24.73413081 -11.4921875 18.578125 C-13.24680519 16.87283391 -14.98359937 15.38281839 -17 14 C-16.67 13.01 -16.34 12.02 -16 11 C-15.34773438 10.96003906 -14.69546875 10.92007813 -14.0234375 10.87890625 C-8.41161649 10.22767534 -8.41161649 10.22767534 -4.0703125 6.86328125 C-3.04618009 5.24046446 -2.0714147 3.58510732 -1.15625 1.8984375 C-0.7746875 1.27195313 -0.393125 0.64546875 0 0 Z " fill="#FAAE06" transform="translate(337,219)"/>
<path d="M0 0 C0.99 0 1.98 0 3 0 C3.22171875 0.61488281 3.4434375 1.22976562 3.671875 1.86328125 C5.49535403 6.00574992 6.70979304 8.45640175 11.00390625 10.265625 C13.99825408 10.98681385 16.95000186 11.57679452 20 12 C20 12.66 20 13.32 20 14 C18.34614767 15.34919532 16.678298 16.68133728 15 18 C12.57869669 21.63195496 12.78977215 23.38349348 12.875 27.6875 C12.90207031 29.45673828 12.90207031 29.45673828 12.9296875 31.26171875 C12.95289063 32.16535156 12.97609375 33.06898438 13 34 C7.2578125 32.1484375 7.2578125 32.1484375 4.9375 30.8125 C2.21938871 29.67264688 0.79694569 30.13427872 -2 31 C-4.00781177 31.98422146 -6.00892752 32.98234073 -8 34 C-8.66 34 -9.32 34 -10 34 C-9.84660156 33.14277344 -9.69320313 32.28554687 -9.53515625 31.40234375 C-8.41868251 24.73413081 -8.41868251 24.73413081 -10.4921875 18.578125 C-12.24680519 16.87283391 -13.98359937 15.38281839 -16 14 C-15.67 13.01 -15.34 12.02 -15 11 C-14.00419922 10.94005859 -14.00419922 10.94005859 -12.98828125 10.87890625 C-7.4181425 10.27792772 -7.4181425 10.27792772 -3.22265625 6.86328125 C-2.00290674 4.61116404 -0.93220669 2.38448658 0 0 Z " fill="#FAAE05" transform="translate(502,219)"/>
<path d="M0 0 C0.99 0 1.98 0 3 0 C3.36738281 0.93972656 3.36738281 0.93972656 3.7421875 1.8984375 C6.0240266 7.04772353 6.0240266 7.04772353 10.55859375 10.04296875 C13.0504116 10.51305637 15.46982374 10.84769813 18 11 C18 12.32 18 13.64 18 15 C17.175 15.804375 16.35 16.60875 15.5 17.4375 C11.79777031 21.45259417 12.62232398 26.21021818 12.82421875 31.3671875 C12.88222656 32.23601562 12.94023437 33.10484375 13 34 C7.2578125 32.1484375 7.2578125 32.1484375 4.9375 30.8125 C2.21938871 29.67264688 0.79694569 30.13427872 -2 31 C-4.00781177 31.98422146 -6.00892752 32.98234073 -8 34 C-8.66 34 -9.32 34 -10 34 C-9.84660156 33.14277344 -9.69320313 32.28554687 -9.53515625 31.40234375 C-8.41868251 24.73413081 -8.41868251 24.73413081 -10.4921875 18.578125 C-12.24680519 16.87283391 -13.98359937 15.38281839 -16 14 C-15.67 13.01 -15.34 12.02 -15 11 C-14.00419922 10.94005859 -14.00419922 10.94005859 -12.98828125 10.87890625 C-7.4181425 10.27792772 -7.4181425 10.27792772 -3.22265625 6.86328125 C-2.00290674 4.61116404 -0.93220669 2.38448658 0 0 Z " fill="#FAAE05" transform="translate(419,219)"/>
<path d="M0 0 C1.91015625 1.1015625 1.91015625 1.1015625 4.66015625 3.1015625 C3.84765625 5.5390625 3.84765625 5.5390625 2.66015625 8.1015625 C1.67015625 8.4315625 0.68015625 8.7615625 -0.33984375 9.1015625 C-0.91734375 8.7921875 -1.49484375 8.4828125 -2.08984375 8.1640625 C-5.20763218 6.69177352 -7.93973878 6.97078923 -11.33984375 7.1015625 C-11.66984375 7.7615625 -11.99984375 8.4215625 -12.33984375 9.1015625 C-11.45941406 9.32070312 -10.57898438 9.53984375 -9.671875 9.765625 C1.00686755 12.68124172 1.00686755 12.68124172 3.97265625 15.9765625 C5.8685036 19.48739092 6.32720757 21.18263602 5.66015625 25.1015625 C3.93730761 28.89182951 2.53649446 30.64390454 -1.33984375 32.1015625 C-9.416172 32.89353996 -16.72198252 33.26672248 -23.33984375 28.1015625 C-23.33984375 27.4415625 -23.33984375 26.7815625 -23.33984375 26.1015625 C-22.67984375 26.1015625 -22.01984375 26.1015625 -21.33984375 26.1015625 C-21.00984375 24.7815625 -20.67984375 23.4615625 -20.33984375 22.1015625 C-15.58984375 22.9765625 -15.58984375 22.9765625 -13.33984375 24.1015625 C-11.79960379 24.17106791 -10.25649387 24.18608607 -8.71484375 24.1640625 C-7.89757812 24.15503906 -7.0803125 24.14601562 -6.23828125 24.13671875 C-5.61179687 24.12511719 -4.9853125 24.11351562 -4.33984375 24.1015625 C-4.00984375 23.1115625 -3.67984375 22.1215625 -3.33984375 21.1015625 C-4.22027344 20.93140625 -5.10070312 20.76125 -6.0078125 20.5859375 C-7.16925781 20.34359375 -8.33070313 20.10125 -9.52734375 19.8515625 C-10.67589844 19.61953125 -11.82445312 19.3875 -13.0078125 19.1484375 C-16.61731993 18.01438358 -18.65125737 16.74108709 -21.33984375 14.1015625 C-22.71497866 9.73348689 -22.74378302 7.89448032 -20.65234375 3.7890625 C-15.54774176 -2.14331279 -7.19597667 -2.76306283 0 0 Z " fill="#6C6D70" transform="translate(300.33984375,220.8984375)"/>
<path d="M0 0 C4.42679007 1.47559669 4.91432696 3.90057368 7 8 C7 8.66 7 9.32 7 10 C8.04800781 10.09087891 8.04800781 10.09087891 9.1171875 10.18359375 C10.02726562 10.26738281 10.93734375 10.35117188 11.875 10.4375 C12.77992188 10.51871094 13.68484375 10.59992188 14.6171875 10.68359375 C17 11 17 11 19 12 C17.80234328 14.93970286 16.95617883 16.03159201 14.3125 17.9375 C10.9498419 22.39074992 11.96816135 25.96554554 12.60546875 31.33203125 C12.73566406 32.21246094 12.86585938 33.09289062 13 34 C9.85485826 32.97211848 6.79933965 31.91510524 3.75 30.625 C-1.59419743 29.73430043 -5.23526265 31.6799468 -10 34 C-9.94199219 33.13117188 -9.88398438 32.26234375 -9.82421875 31.3671875 C-9.25211104 23.80783353 -9.25211104 23.80783353 -12.375 17.25 C-14.76757003 15.01515848 -14.76757003 15.01515848 -17 14 C-17 13.34 -17 12.68 -17 12 C-16.19175781 11.88785156 -15.38351562 11.77570313 -14.55078125 11.66015625 C-8.10863176 10.61289826 -8.10863176 10.61289826 -3.08984375 6.796875 C-1.88585677 4.56440935 -0.85989403 2.38470612 0 0 Z " fill="#FAAF05" transform="translate(378,219)"/>
<path d="M0 0 C4.42679007 1.47559669 4.91432696 3.90057368 7 8 C7 8.66 7 9.32 7 10 C8.04800781 10.09087891 8.04800781 10.09087891 9.1171875 10.18359375 C10.02726562 10.26738281 10.93734375 10.35117188 11.875 10.4375 C12.77992188 10.51871094 13.68484375 10.59992188 14.6171875 10.68359375 C17 11 17 11 19 12 C17.80234328 14.93970286 16.95617883 16.03159201 14.3125 17.9375 C10.9498419 22.39074992 11.96816135 25.96554554 12.60546875 31.33203125 C12.73566406 32.21246094 12.86585938 33.09289062 13 34 C9.85485826 32.97211848 6.79933965 31.91510524 3.75 30.625 C-1.59419743 29.73430043 -5.23526265 31.6799468 -10 34 C-9.94199219 33.13117188 -9.88398438 32.26234375 -9.82421875 31.3671875 C-9.25211104 23.80783353 -9.25211104 23.80783353 -12.375 17.25 C-14.76757003 15.01515848 -14.76757003 15.01515848 -17 14 C-17 13.34 -17 12.68 -17 12 C-16.19175781 11.88785156 -15.38351562 11.77570313 -14.55078125 11.66015625 C-8.10863176 10.61289826 -8.10863176 10.61289826 -3.08984375 6.796875 C-1.88585677 4.56440935 -0.85989403 2.38470612 0 0 Z " fill="#FAAF05" transform="translate(461,219)"/>
<path d="M0 0 C3.3 0 6.6 0 10 0 C10.32613281 0.78503906 10.65226563 1.57007813 10.98828125 2.37890625 C11.64376953 3.95478516 11.64376953 3.95478516 12.3125 5.5625 C12.95638672 7.11130859 12.95638672 7.11130859 13.61328125 8.69140625 C15.05679663 12.13551195 16.52895529 15.56756235 18 19 C20.31 12.73 22.62 6.46 25 0 C28.3 0 31.6 0 35 0 C34.3617187 3.79176158 33.26551439 7.08792436 31.78515625 10.6328125 C31.34623047 11.68597656 30.90730469 12.73914063 30.45507812 13.82421875 C29.99552734 14.91347656 29.53597656 16.00273437 29.0625 17.125 C28.60681641 18.22199219 28.15113281 19.31898438 27.68164062 20.44921875 C24.26571532 28.60142702 24.26571532 28.60142702 22 32 C19.8359375 32.29296875 19.8359375 32.29296875 17.375 32.1875 C16.55773437 32.16042969 15.74046875 32.13335937 14.8984375 32.10546875 C14.27195313 32.07066406 13.64546875 32.03585938 13 32 C12.74831055 31.410979 12.49662109 30.82195801 12.23730469 30.21508789 C11.07553215 27.49727492 9.91277138 24.77988578 8.75 22.0625 C8.35425781 21.13630859 7.95851562 20.21011719 7.55078125 19.25585938 C5.32943918 14.06665865 3.07140511 8.90144568 0.70800781 3.77514648 C0 2 0 2 0 0 Z " fill="#6C6D70" transform="translate(140,221)"/>
<path d="M0 0 C2.97 0 5.94 0 9 0 C9 10.56 9 21.12 9 32 C6.03 32 3.06 32 0 32 C0 21.44 0 10.88 0 0 Z " fill="#6C6D70" transform="translate(178,221)"/>
<path d="M0 0 C2.375 0.875 2.375 0.875 4.375 3.875 C4.0508631 7.19740324 3.76723697 8.48276303 1.375 10.875 C-1.47102594 11.23987512 -3.0114306 11.27699375 -5.4375 9.6875 C-7.06552002 7.20262734 -7.13475499 5.78788568 -6.625 2.875 C-4.39928105 0.40197895 -3.34204055 -0.15914479 0 0 Z " fill="#6C6D70" transform="translate(183.625,207.125)"/>
</svg>
