<?xml version="1.0" encoding="UTF-8"?>
<svg version="1.1" xmlns="http://www.w3.org/2000/svg" width="600" height="300">
<path d="M0 0 C31.02 0 62.04 0 94 0 C94 31.35 94 62.7 94 95 C62.98 95 31.96 95 0 95 C0 63.65 0 32.3 0 0 Z " fill="#2CAE79" transform="translate(457,138)"/>
<path d="M0 0 C31.02 0 62.04 0 94 0 C94 31.35 94 62.7 94 95 C62.98 95 31.96 95 0 95 C0 63.65 0 32.3 0 0 Z " fill="#2FAB78" transform="translate(355,138)"/>
<path d="M0 0 C31.02 0 62.04 0 94 0 C94 31.35 94 62.7 94 95 C62.98 95 31.96 95 0 95 C0 63.65 0 32.3 0 0 Z " fill="#30AB78" transform="translate(253,138)"/>
<path d="M0 0 C31.02 0 62.04 0 94 0 C94 31.35 94 62.7 94 95 C62.98 95 31.96 95 0 95 C0 63.65 0 32.3 0 0 Z " fill="#2EAB78" transform="translate(151,138)"/>
<path d="M0 0 C31.02 0 62.04 0 94 0 C94 31.35 94 62.7 94 95 C62.98 95 31.96 95 0 95 C0 63.65 0 32.3 0 0 Z " fill="#2CAE79" transform="translate(49,138)"/>
<path d="M0 0 C2.1029542 2.1029542 2.53427293 3.13626267 3.42041016 5.89892578 C3.81595093 7.11672729 3.81595093 7.11672729 4.21948242 8.35913086 C4.62517456 9.63929077 4.62517456 9.63929077 5.0390625 10.9453125 C5.41937622 12.12178345 5.41937622 12.12178345 5.80737305 13.32202148 C6.75326457 16.25420034 7.68849039 19.18981119 8.625 22.125 C10.72875 28.68375 12.8325 35.2425 15 42 C29.85 42.33 44.7 42.66 60 43 C54.37641723 48.62358277 54.37641723 48.62358277 51.20703125 50.875 C50.50360596 51.37854004 49.80018066 51.88208008 49.07543945 52.40087891 C48.32866943 52.92858887 47.58189941 53.45629883 46.8125 54 C45.19784117 55.15354016 43.58326004 56.30718909 41.96875 57.4609375 C41.14503906 58.04713867 40.32132812 58.63333984 39.47265625 59.23730469 C35.57394172 62.01660158 31.69308009 64.82046586 27.8125 67.625 C27.07636475 68.15633545 26.34022949 68.6876709 25.58178711 69.23510742 C18.35986205 74.4519613 11.1752002 79.71913732 4 85 C4.59014893 84.84853516 5.18029785 84.69707031 5.78833008 84.54101562 C8.46212319 83.85697921 11.1372795 83.17843152 13.8125 82.5 C15.2056543 82.14228516 15.2056543 82.14228516 16.62695312 81.77734375 C17.51962891 81.55175781 18.41230469 81.32617188 19.33203125 81.09375 C20.15421143 80.88427734 20.9763916 80.67480469 21.82348633 80.45898438 C24 80 24 80 27 80 C28.45397528 84.21367739 29.89611461 88.43116264 31.32739258 92.65258789 C31.81601305 94.08826551 32.30785827 95.5228498 32.80297852 96.95629883 C33.51387373 99.01625498 34.21310076 101.07985732 34.91015625 103.14453125 C35.54642944 105.00621948 35.54642944 105.00621948 36.19555664 106.90551758 C37 110 37 110 36 113 C34.13585343 111.66307365 32.27280603 110.32464942 30.41088867 108.98461914 C28.79270001 107.82034264 27.17304934 106.65809566 25.55200195 105.49780273 C21.44057847 102.54135014 17.38300628 99.54529685 13.41796875 96.39453125 C12.70447266 95.83411133 11.99097656 95.27369141 11.25585938 94.69628906 C9.89754847 93.62336454 8.55065516 92.53579334 7.21679688 91.43261719 C5.18490912 89.77209789 5.18490912 89.77209789 2 88 C-2.93711218 88.62908365 -7.49112733 93.07761202 -11.4375 96 C-13.03750444 97.17092277 -14.63776827 98.34149118 -16.23828125 99.51171875 C-17.03443848 100.09614746 -17.8305957 100.68057617 -18.65087891 101.28271484 C-22.12243733 103.82053879 -25.62171543 106.31874535 -29.125 108.8125 C-30.27343908 109.63150821 -31.42187675 110.45051838 -32.5703125 111.26953125 C-33.37210938 111.84058594 -34.17390625 112.41164063 -35 113 C-36.40000169 108.79999494 -34.87279809 105.78574576 -33.5078125 101.75390625 C-33.24241669 100.94638412 -32.97702087 100.138862 -32.70358276 99.30686951 C-31.85240796 96.72256377 -30.98908728 94.14251379 -30.125 91.5625 C-29.27064747 88.9852593 -28.41877619 86.40721286 -27.56784058 83.82884216 C-27.03729543 82.22420444 -26.50428554 80.62037905 -25.96853638 79.01747131 C-24.86294826 75.69807669 -23.81663219 72.4017505 -23 69 C-23.58612061 68.72019287 -24.17224121 68.44038574 -24.77612305 68.15209961 C-26.84900015 67.07822684 -28.67977488 65.9145774 -30.58203125 64.56640625 C-31.26015869 64.08727783 -31.93828613 63.60814941 -32.63696289 63.11450195 C-33.35489014 62.60234131 -34.07281738 62.09018066 -34.8125 61.5625 C-35.5542749 61.03551514 -36.2960498 60.50853027 -37.06030273 59.96557617 C-42.24546337 56.27258771 -47.41434248 52.55689865 -52.5625 48.8125 C-53.21130127 48.34336182 -53.86010254 47.87422363 -54.52856445 47.39086914 C-56.03791575 46.28590774 -57.52206212 45.14663885 -59 44 C-59 43.67 -59 43.34 -59 43 C-43.82 43 -28.64 43 -13 43 C-12.34 40.03 -11.68 37.06 -11 34 C-10.16684601 31.20927948 -9.31116553 28.44710368 -8.3984375 25.68359375 C-8.0364476 24.57069725 -8.0364476 24.57069725 -7.66714478 23.43531799 C-6.90701594 21.10141106 -6.1411242 18.76944488 -5.375 16.4375 C-4.85378162 14.84062042 -4.33294496 13.24361619 -3.8125 11.64648438 C-2.54606675 7.76287065 -1.27446703 3.88098436 0 0 Z " fill="#FCF6F7" transform="translate(109,0)"/>
<path d="M0 0 C6.53009988 3.65436432 9.38850883 9.45726023 11.81640625 16.3125 C14.66482107 28.77910475 14.11610061 42.89186631 7.6875 54.125 C4.28451219 58.83735386 1.23728998 61.40456511 -4.3125 63.125 C-12.50169036 64.18394703 -18.07631614 62.7849294 -25 58.4375 C-31.73642752 51.70107248 -33.52778493 42.14050286 -33.69262695 32.91845703 C-33.67212843 22.74923514 -33.28065841 13.18287225 -27.0625 4.625 C-19.11701008 -2.59817266 -10.04658806 -4.24524999 0 0 Z " fill="#F8FCFA" transform="translate(411.3125,156.875)"/>
<path d="M0 0 C6.05952788 3.53886362 9.7327771 8.43122951 12.08325195 15.02441406 C13.29181736 19.85086273 13.17236191 24.73892089 13.125 29.6875 C13.11597656 30.7997998 13.10695313 31.91209961 13.09765625 33.05810547 C12.91379807 41.75178862 12.67789684 49.68298462 6.8515625 56.625 C0.73117747 62.44053827 -5.23233868 63.97890783 -13.55859375 63.8203125 C-19.07444306 63.05357033 -22.62038845 60.03560535 -26.5625 56.3125 C-31.54049489 48.13436554 -33.01381741 39.95930685 -32.875 30.5 C-32.86476807 29.44893066 -32.85453613 28.39786133 -32.84399414 27.31494141 C-32.60362552 18.53774167 -31.55706157 11.31052741 -25.59765625 4.46875 C-18.57937289 -2.04274266 -8.89994882 -3.98786168 0 0 Z " fill="#F9FCFB" transform="translate(307.3125,156.5625)"/>
<path d="M0 0 C5.82029076 5.73152815 9.06851023 12.91093855 9.36328125 21.05859375 C9.36196958 22.85164192 9.34481358 24.64474254 9.3125 26.4375 C9.31572266 27.32759766 9.31894531 28.21769531 9.32226562 29.13476562 C9.24828473 38.34202397 8.0229803 48.4094513 1.6171875 55.5390625 C-4.14697998 60.69965224 -9.93407847 61.42973312 -17.390625 61.23828125 C-23.84478415 60.64890444 -27.21221281 57.07220949 -31.38671875 52.5234375 C-36.16885732 45.0433854 -36.49513549 37.30176094 -36.4375 28.625 C-36.45748047 27.56539062 -36.47746094 26.50578125 -36.49804688 25.4140625 C-36.49310318 17.34594739 -35.52902466 9.06680191 -30.05664062 2.76049805 C-21.42637434 -5.3843703 -9.98647578 -6.69526436 0 0 Z " fill="#FAFDFB" transform="translate(518,159)"/>
<path d="M0 0 C5.81129861 3.49141893 9.28049965 8.70689989 10.95703125 15.17578125 C11.75255076 23.58423747 12.05974639 32.07054709 6.95703125 39.17578125 C3.3004937 43.08993849 0.03731294 45.87223168 -5.4609375 46.4140625 C-12.19283892 46.59446606 -16.27047215 45.66106222 -22.04296875 42.17578125 C-22.04296875 41.51578125 -22.04296875 40.85578125 -22.04296875 40.17578125 C-22.70296875 40.17578125 -23.36296875 40.17578125 -24.04296875 40.17578125 C-24.04296875 47.43578125 -24.04296875 54.69578125 -24.04296875 62.17578125 C-27.34296875 62.17578125 -30.64296875 62.17578125 -34.04296875 62.17578125 C-34.06609612 54.10925951 -34.08388584 46.04275153 -34.09478092 37.97620487 C-34.10000889 34.23095088 -34.10710497 30.48571949 -34.1184082 26.74047852 C-34.12924016 23.12896438 -34.13524624 19.51747204 -34.13784599 15.90594292 C-34.13969969 14.52517796 -34.14331924 13.14441425 -34.14869881 11.76365852 C-34.15591322 9.83602173 -34.15637684 7.90836318 -34.15649414 5.98071289 C-34.15871475 4.88151016 -34.16093536 3.78230743 -34.16322327 2.64979553 C-34.04296875 0.17578125 -34.04296875 0.17578125 -33.04296875 -0.82421875 C-30.37238024 -0.96537036 -27.71864637 -0.86668982 -25.04296875 -0.82421875 C-24.38296875 0.49578125 -23.72296875 1.81578125 -23.04296875 3.17578125 C-22.11484375 2.53640625 -21.18671875 1.89703125 -20.23046875 1.23828125 C-13.82233162 -2.90816042 -6.93455822 -2.88597985 0 0 Z M-21.85546875 11.11328125 C-24.92834535 16.45038272 -24.89847998 23.34048091 -23.58203125 29.2421875 C-21.87970562 33.87852142 -19.43917527 36.10209893 -15.04296875 38.17578125 C-11.49017794 38.92746952 -8.51692122 38.96794954 -5.26953125 37.22265625 C-1.88998357 34.6179317 -0.33060926 32.15576101 0.95703125 28.17578125 C1.76073411 21.92372061 1.42543129 16.28560182 -1.7734375 10.76953125 C-4.39922333 7.47316011 -7.49277149 6.40831084 -11.54296875 5.80078125 C-15.75361817 6.43237866 -18.94222043 7.99911925 -21.85546875 11.11328125 Z " fill="#F9ECEF" transform="translate(420.04296875,60.82421875)"/>
<path d="M0 0 C1.69946788 2.54920182 2.56531331 4.32099564 3.5078125 7.16015625 C3.90419922 8.3502832 3.90419922 8.3502832 4.30859375 9.56445312 C4.57800781 10.38880859 4.84742188 11.21316406 5.125 12.0625 C5.40214844 12.89072266 5.67929688 13.71894531 5.96484375 14.57226562 C8 20.73287408 8 20.73287408 8 23 C16.25 23 24.5 23 33 23 C30.30062802 25.69937198 28.20702891 27.70207584 25.171875 29.8046875 C24.45386719 30.30613281 23.73585937 30.80757812 22.99609375 31.32421875 C22.25488281 31.83597656 21.51367188 32.34773438 20.75 32.875 C15.08095061 36.81211956 9.50122545 40.83051917 4 45 C7.63 44.34 11.26 43.68 15 43 C15.86524753 45.43407005 16.71742865 47.87143184 17.5625 50.3125 C17.9327832 51.34793945 17.9327832 51.34793945 18.31054688 52.40429688 C20.11328125 57.66015625 20.11328125 57.66015625 19 61 C10.09 54.565 10.09 54.565 1 48 C-1.77517502 49.38758751 -3.91277706 50.55604752 -6.34765625 52.34765625 C-6.95287109 52.78787109 -7.55808594 53.22808594 -8.18164062 53.68164062 C-9.43994868 54.60544519 -10.69775808 55.52992932 -11.95507812 56.45507812 C-14.62122884 58.39280346 -16.85246118 59.95082039 -20 61 C-17.28716042 50.53344161 -17.28716042 50.53344161 -15.3125 45.625 C-14.09502585 42.26245235 -13.55911561 40.47847094 -14 37 C-15.52384469 35.25829383 -15.52384469 35.25829383 -17.68359375 33.95703125 C-18.44607422 33.44076172 -19.20855469 32.92449219 -19.99414062 32.39257812 C-20.80044922 31.87115234 -21.60675781 31.34972656 -22.4375 30.8125 C-24.02189233 29.76005626 -25.60404405 28.70422915 -27.18359375 27.64453125 C-27.89056396 27.18409424 -28.59753418 26.72365723 -29.32592773 26.24926758 C-31 25 -31 25 -32 23 C-23.75 23 -15.5 23 -7 23 C-6.67 20.69 -6.34 18.38 -6 16 C-5.44335938 13.84423828 -5.44335938 13.84423828 -4.84375 12.0703125 C-4.62589844 11.420625 -4.40804687 10.7709375 -4.18359375 10.1015625 C-3.95800781 9.44929687 -3.73242188 8.79703125 -3.5 8.125 C-3.27441406 7.44953125 -3.04882812 6.7740625 -2.81640625 6.078125 C-1.1409337 1.1409337 -1.1409337 1.1409337 0 0 Z " fill="#F8FCFA" transform="translate(96,155)"/>
<path d="M0 0 C5.02717246 4.37415831 7.72955379 9.01565748 8.3359375 15.70703125 C8.52536066 24.25488064 8.49889556 31.26656487 2.3515625 37.734375 C-3.8932371 43.46104712 -9.39624419 44.46932996 -17.7734375 44.30859375 C-24.14873152 43.69885013 -28.11310278 41.24343268 -32.375 36.5625 C-37.08682367 30.52268267 -38.47438721 23.99989054 -37.75390625 16.40625 C-36.64506667 9.89059088 -34.55488663 5.48391756 -29.75 0.8125 C-20.11835089 -5.53563237 -10.0517936 -5.83652531 0 0 Z M-25.375 9.9375 C-27.94461241 14.99071269 -27.62815436 20.4921587 -27 26 C-25.40666567 30.69614328 -23.34349178 33.5449829 -19 36 C-15.1675977 36.75797975 -11.68552016 36.87132822 -8.15625 35.046875 C-4.81179879 32.45656475 -3.26614641 29.94739762 -2 26 C-1.36225434 20.55691498 -1.07429642 14.92199991 -3.625 9.9375 C-6.77498006 6.04147203 -9.54502468 4.3682463 -14.5 3.625 C-19.45497532 4.3682463 -22.22501994 6.04147203 -25.375 9.9375 Z " fill="#FAEDF0" transform="translate(513,63)"/>
<path d="M0 0 C16.83 0 33.66 0 51 0 C51 3.3 51 6.6 51 10 C44.4 10 37.8 10 31 10 C31 27.49 31 44.98 31 63 C27.37 63 23.74 63 20 63 C20 45.51 20 28.02 20 10 C13.73 10 7.46 10 1 10 C0.67 9.67 0.34 9.34 0 9 C0 6.03 0 3.06 0 0 Z " fill="#F9EDEF" transform="translate(181,43)"/>
<path d="M0 0 C1.47906892 -0.02689216 2.95827483 -0.04634621 4.4375 -0.0625 C5.26121094 -0.07410156 6.08492188 -0.08570313 6.93359375 -0.09765625 C9 0 9 0 10 1 C10.11053149 3.39954161 10.16158382 5.77517888 10.17578125 8.17578125 C10.19898521 9.65821724 10.22310278 11.14063915 10.24804688 12.62304688 C10.2831383 14.96681033 10.312486 17.31005881 10.32592773 19.65405273 C10.34142044 21.9119357 10.38164183 24.16830019 10.42578125 26.42578125 C10.42387283 27.12383377 10.42196442 27.82188629 10.41999817 28.54109192 C10.50353019 31.86979824 10.79882281 33.72593689 12.78979492 36.43823242 C15.45105225 38.318721 17.67844208 38.51994735 20.90234375 38.62890625 C24.27730782 37.61704551 25.78444978 35.68939752 28 33 C28.75916031 29.45237561 28.75916031 29.45237561 28.671875 25.546875 C28.69099945 24.49563446 28.69099945 24.49563446 28.71051025 23.42315674 C28.74667935 21.19835414 28.74951838 18.97507015 28.75 16.75 C28.77160065 14.51121233 28.8000027 12.27265354 28.83233643 10.03399658 C28.85820407 8.01334208 28.86652972 5.99248587 28.87402344 3.97167969 C29 1 29 1 30 0 C31.49738124 -0.0979057 32.99942892 -0.12974864 34.5 -0.125 C35.3146875 -0.12757812 36.129375 -0.13015625 36.96875 -0.1328125 C39 0 39 0 40 1 C40.09795311 2.37609882 40.12798088 3.75713882 40.12939453 5.13671875 C40.13254669 6.01432861 40.13569885 6.89193848 40.13894653 7.79614258 C40.1369223 8.75029053 40.13489807 9.70443848 40.1328125 10.6875 C40.13376923 11.66033936 40.13472595 12.63317871 40.13571167 13.63549805 C40.13639358 15.696778 40.13453853 17.75806008 40.13037109 19.81933594 C40.125023 22.98637688 40.13031572 26.153276 40.13671875 29.3203125 C40.13605797 31.31770865 40.13477681 33.31510471 40.1328125 35.3125 C40.13483673 36.26664795 40.13686096 37.2207959 40.13894653 38.20385742 C40.13421829 39.52027222 40.13421829 39.52027222 40.12939453 40.86328125 C40.12859894 41.63969971 40.12780334 42.41611816 40.12698364 43.21606445 C40 45 40 45 39 46 C37.48071962 46.07179964 35.95832518 46.08392007 34.4375 46.0625 C33.61121094 46.05347656 32.78492188 46.04445312 31.93359375 46.03515625 C31.29550781 46.02355469 30.65742188 46.01195312 30 46 C30 44.35 30 42.7 30 41 C29.47792969 41.433125 28.95585937 41.86625 28.41796875 42.3125 C23.1398805 46.30572964 19.23780737 47.86304415 12.5859375 47.453125 C8.48459865 46.73446139 6.29154265 45.6058046 3 43 C-0.18585572 38.02620683 -0.40639466 34.02214975 -0.29296875 28.3203125 C-0.28872391 27.50754852 -0.28447906 26.69478455 -0.28010559 25.85739136 C-0.26340804 23.27958041 -0.22577362 20.7025718 -0.1875 18.125 C-0.17244158 16.36980301 -0.1587552 14.61459369 -0.14648438 12.859375 C-0.11353392 8.57261087 -0.06181453 4.28644114 0 0 Z " fill="#F7E6EA" transform="translate(263,60)"/>
<path d="M0 0 C3.41110512 2.68533807 4.77441412 4.08030373 5.8125 8.3125 C5.874375 9.199375 5.93625 10.08625 6 11 C4.3973218 11.10824843 2.79254252 11.18570645 1.1875 11.25 C0.29417969 11.29640625 -0.59914063 11.3428125 -1.51953125 11.390625 C-4 11 -4 11 -5.55078125 9.03515625 C-6.02902344 8.36355469 -6.50726563 7.69195312 -7 7 C-11.52753473 5.60104264 -16.46147349 5.68236327 -21 7 C-20.76097486 9.98226415 -20.76097486 9.98226415 -19 13 C-15.80927911 14.52707653 -12.43792439 15.21734403 -9 16 C-2.47005558 17.63248611 2.23177783 19.10951573 7 24 C8.49142111 28.47426332 8.74270548 32.31914023 6.8125 36.6875 C3.18781391 41.3120995 -0.39450504 43.41878895 -6 45 C-13.84911733 45.8469562 -21.36381483 45.65822933 -28 41 C-30.94391743 37.54089702 -32.60924399 34.55882017 -33 30 C-31.43090241 28.43090241 -29.85953743 28.67981135 -27.6875 28.5625 C-25.2265625 28.5703125 -25.2265625 28.5703125 -23 29 C-20.5625 31.9375 -20.5625 31.9375 -19 35 C-16.52621876 36.23689062 -14.82084683 36.13310087 -12.0625 36.125 C-11.18722656 36.12757812 -10.31195313 36.13015625 -9.41015625 36.1328125 C-6.85540944 36.09822003 -6.85540944 36.09822003 -4 35 C-3.23043864 32.65466049 -3.23043864 32.65466049 -3 30 C-5.0304871 27.37240587 -6.87915244 26.50376254 -10.0546875 25.71875 C-10.83457031 25.51636719 -11.61445313 25.31398438 -12.41796875 25.10546875 C-13.22878906 24.90566406 -14.03960937 24.70585938 -14.875 24.5 C-25.08277639 21.96034456 -25.08277639 21.96034456 -29 19 C-31.13225467 15.3040919 -31.97531104 12.70363534 -32.125 8.4375 C-30.58576506 3.73428213 -28.13830238 1.59057729 -24 -1 C-16.0484925 -4.23950306 -7.58225744 -4.12976985 0 0 Z " fill="#F9ECEF" transform="translate(342,62)"/>
<path d="M0 0 C3.63 0 7.26 0 11 0 C11 20.46 11 40.92 11 62 C6.71 62 2.42 62 -2 62 C-2 48.8 -2 35.6 -2 22 C-6.95 22 -11.9 22 -17 22 C-17 18.7 -17 15.4 -17 12 C-15.64455078 11.63648438 -15.64455078 11.63648438 -14.26171875 11.265625 C-13.08222656 10.93046875 -11.90273437 10.5953125 -10.6875 10.25 C-8.92986328 9.76273438 -8.92986328 9.76273438 -7.13671875 9.265625 C-3.79153701 7.91588791 -2.69440637 7.12279672 -1 4 C-0.67 2.68 -0.34 1.36 0 0 Z " fill="#F8FCFA" transform="translate(197,157)"/>
<path d="M0 0 C3.3 0 6.6 0 10 0 C10.33 4.29 10.66 8.58 11 13 C12.134375 12.979375 13.26875 12.95875 14.4375 12.9375 C18 13 18 13 19 14 C19.04092937 16.33297433 19.04241723 18.66705225 19 21 C16.03 21 13.06 21 10 21 C10.33 30.9 10.66 40.8 11 51 C13.64 51 16.28 51 19 51 C19 53.64 19 56.28 19 59 C16.91695462 59.05418326 14.83350232 59.09287551 12.75 59.125 C11.58984375 59.14820313 10.4296875 59.17140625 9.234375 59.1953125 C6.11158862 59.00673844 4.50195229 58.82481842 2 57 C-0.47494399 53.34556463 -0.22956846 49.9256262 -0.1953125 45.609375 C-0.19106766 44.55245453 -0.19106766 44.55245453 -0.18673706 43.47418213 C-0.17557801 41.2326124 -0.15048193 38.99144814 -0.125 36.75 C-0.11496464 35.22656829 -0.10583976 33.70313029 -0.09765625 32.1796875 C-0.07565291 28.45299414 -0.04115272 24.72653667 0 21 C-2.64 21 -5.28 21 -8 21 C-8.04241723 18.66705225 -8.04092937 16.33297433 -8 14 C-7.67 13.67 -7.34 13.34 -7 13 C-5.02 13 -3.04 13 -1 13 C-0.67 8.71 -0.34 4.42 0 0 Z " fill="#FAEFF1" transform="translate(532,47)"/>
<path d="M0 0 C3.3 0 6.6 0 10 0 C10.33 4.29 10.66 8.58 11 13 C13.64 13 16.28 13 19 13 C19 15.64 19 18.28 19 21 C16.03 21 13.06 21 10 21 C10.11798944 24.96952899 10.24221799 28.93880781 10.37231445 32.90795898 C10.41571223 34.25914147 10.4573837 35.61038053 10.49731445 36.96166992 C10.55489952 38.90036701 10.61914298 40.83886276 10.68359375 42.77734375 C10.72025146 43.94515381 10.75690918 45.11296387 10.79467773 46.31616211 C10.70076188 48.91779795 10.70076188 48.91779795 12 50 C14.32817964 50.36760731 16.6618385 50.70241581 19 51 C19 53.64 19 56.28 19 59 C16.93867858 59.10864945 14.87568679 59.18588321 12.8125 59.25 C11.66394531 59.29640625 10.51539063 59.3428125 9.33203125 59.390625 C5.34289706 58.92296566 3.78908693 57.83497684 1 55 C-0.17942085 51.46173745 -0.11289189 48.65851274 -0.09765625 44.92578125 C-0.0962413 44.2419487 -0.09482635 43.55811615 -0.09336853 42.8535614 C-0.08777876 40.67316278 -0.07522822 38.49286749 -0.0625 36.3125 C-0.05748367 34.83268378 -0.052921 33.35286594 -0.04882812 31.87304688 C-0.03781271 28.24866443 -0.02055512 24.6243423 0 21 C-2.31 21 -4.62 21 -7 21 C-7 18.36 -7 15.72 -7 13 C-5.02 13 -3.04 13 -1 13 C-0.67 8.71 -0.34 4.42 0 0 Z " fill="#FAF0F3" transform="translate(360,47)"/>
<path d="M0 0 C3.74571274 2.91333213 5.51759162 5.55482124 7 10 C7.42839698 13.76305348 7.37021168 17.5273308 7.375 21.3125 C7.39949219 22.31990234 7.42398437 23.32730469 7.44921875 24.36523438 C7.47535737 31.05236494 6.53203439 35.294911 3 41 C1 43 1 43 -2.8125 43.5 C-5.31403022 43.44542116 -6.58683312 43.31037902 -8.6015625 41.796875 C-13.98588244 35.56239928 -13.21288031 28.92941535 -13.25 21.125 C-13.270625 20.04863281 -13.29125 18.97226563 -13.3125 17.86328125 C-13.34600763 11.06960989 -12.56325619 6.84488429 -8.75 1.125 C-5.75562863 -0.79995302 -3.44900067 -0.47572423 0 0 Z " fill="#30AF7B" transform="translate(404,166)"/>
<path d="M0 0 C4.09925039 3.92102211 5.79676649 6.90438406 6.16113281 12.4543457 C6.20669554 15.40718142 6.23524344 18.35934264 6.25 21.3125 C6.270625 22.33279297 6.29125 23.35308594 6.3125 24.40429688 C6.34856761 31.37887085 5.48066637 35.95259697 1.8125 41.9375 C-1.31250932 43.76940201 -4.55484526 43.7307904 -8 43 C-12.26104625 39.29961773 -13.69160039 34.2807463 -14.20703125 28.79760742 C-14.30373399 26.40345902 -14.32206868 24.02099732 -14.3125 21.625 C-14.32861328 20.82578125 -14.34472656 20.0265625 -14.36132812 19.203125 C-14.36653154 12.77170952 -13.53747553 5.99059616 -9.25 0.9375 C-5.86423164 -0.47323681 -3.62893706 -0.57299006 0 0 Z " fill="#2FAF7B" transform="translate(508,166)"/>
<path d="M0 0 C3.6875 0.4375 3.6875 0.4375 6.5 2.4375 C12.41617773 10.55111517 11.60794438 22.45660159 10.33984375 32.07421875 C9.38552886 36.28443152 7.78462213 40.34037787 4.6875 43.4375 C1.61491273 43.92986186 -1.25026422 44.01669696 -4.3125 43.4375 C-10.17179937 36.8457882 -9.55709099 29.96875312 -9.625 21.625 C-9.65400391 20.44873047 -9.68300781 19.27246094 -9.71289062 18.06054688 C-9.79173061 7.33224366 -9.79173061 7.33224366 -5.3125 2.4375 C-3.3125 0.4375 -3.3125 0.4375 0 0 Z " fill="#2FAF7B" transform="translate(297.3125,165.5625)"/>
<path d="M0 0 C3.3 0 6.6 0 10 0 C10 20.79 10 41.58 10 63 C6.7 63 3.4 63 0 63 C0 42.21 0 21.42 0 0 Z " fill="#FAF1F3" transform="translate(458,43)"/>
<path d="M0 0 C1 1 1 1 1.09765625 3.06640625 C1.08605469 3.89011719 1.07445312 4.71382812 1.0625 5.5625 C1.05347656 6.38878906 1.04445313 7.21507813 1.03515625 8.06640625 C1.02355469 8.70449219 1.01195312 9.34257813 1 10 C0.11248047 10.03867188 0.11248047 10.03867188 -0.79296875 10.078125 C-6.01460645 10.45292444 -9.30309802 10.96701602 -13 15 C-14.89803474 18.8561445 -15.29255391 22.12147901 -15.4140625 26.39453125 C-15.47207031 28.19760742 -15.47207031 28.19760742 -15.53125 30.03710938 C-15.5621875 31.28298828 -15.593125 32.52886719 -15.625 33.8125 C-15.68300781 35.71032227 -15.68300781 35.71032227 -15.7421875 37.64648438 C-15.83630657 40.76417851 -15.92194361 43.88186914 -16 47 C-19.3 47 -22.6 47 -26 47 C-26.024644 40.60962203 -26.04283317 34.21927148 -26.05493164 27.82885742 C-26.05997308 25.65307127 -26.06680607 23.47728853 -26.07543945 21.30151367 C-26.08751338 18.18146933 -26.09323005 15.06146962 -26.09765625 11.94140625 C-26.10281754 10.96224747 -26.10797882 9.98308868 -26.11329651 8.97425842 C-26.11337204 8.07340012 -26.11344757 7.17254181 -26.11352539 6.24438477 C-26.115746 5.44718521 -26.11796661 4.64998566 -26.12025452 3.82862854 C-26 2 -26 2 -25 1 C-22.32941149 0.85884839 -19.67567762 0.95752893 -17 1 C-17 3.31 -17 5.62 -17 8 C-16.34 8 -15.68 8 -15 8 C-14.7525 7.401875 -14.505 6.80375 -14.25 6.1875 C-11.03105816 0.55435178 -6.09649098 -0.26506483 0 0 Z " fill="#FAEEF1" transform="translate(256,59)"/>
<path d="M0 0 C31.02 0 62.04 0 94 0 C94 31.35 94 62.7 94 95 C62.98 95 31.96 95 0 95 C0 94.34 0 93.68 0 93 C30.36 93 60.72 93 92 93 C92 62.97 92 32.94 92 2 C61.64 2 31.28 2 0 2 C0 1.34 0 0.68 0 0 Z " fill="#56876A" transform="translate(457,138)"/>
<path d="M0 0 C31.02 0 62.04 0 94 0 C94 0.66 94 1.32 94 2 C63.64 2 33.28 2 2 2 C2 32.03 2 62.06 2 93 C32.36 93 62.72 93 94 93 C94 93.66 94 94.32 94 95 C62.98 95 31.96 95 0 95 C0 63.65 0 32.3 0 0 Z " fill="#56876A" transform="translate(49,138)"/>
<path d="M0 0 C1.45397528 4.21367739 2.89611461 8.43116264 4.32739258 12.65258789 C4.81601305 14.08826551 5.30785827 15.5228498 5.80297852 16.95629883 C6.51387373 19.01625498 7.21310076 21.07985732 7.91015625 23.14453125 C8.33433838 24.38565674 8.75852051 25.62678223 9.19555664 26.90551758 C10 30 10 30 9 33 C6.33134192 31.08609508 3.66529216 29.16858922 1 27.25 C0.19361084 26.67032471 -0.61277832 26.09064941 -1.44360352 25.4934082 C-5.55035846 22.53065205 -9.6295115 19.54082288 -13.65234375 16.46484375 C-14.37486328 15.91344727 -15.09738281 15.36205078 -15.84179688 14.79394531 C-17.21896229 13.73828962 -18.59152748 12.67660028 -19.95898438 11.60839844 C-23.55820027 8.70626497 -23.55820027 8.70626497 -28 8 C-28 7.34 -28 6.68 -28 6 C-27.34926514 5.85377197 -26.69853027 5.70754395 -26.02807617 5.55688477 C-23.08085809 4.8936752 -20.13417572 4.22811499 -17.1875 3.5625 C-16.16333984 3.33240234 -15.13917969 3.10230469 -14.08398438 2.86523438 C-13.10107422 2.64287109 -12.11816406 2.42050781 -11.10546875 2.19140625 C-10.19949951 1.98717041 -9.29353027 1.78293457 -8.36010742 1.57250977 C-1.87761194 0 -1.87761194 0 0 0 Z " fill="#F9EDF0" transform="translate(136,80)"/>
<path d="M0 0 C2.97 0 5.94 0 9 0 C10 1 10 1 10.12025452 2.82862854 C10.1169236 4.02442787 10.1169236 4.02442787 10.11352539 5.24438477 C10.11344986 6.14524307 10.11337433 7.04610138 10.11329651 7.97425842 C10.10813522 8.95341721 10.10297394 9.93257599 10.09765625 10.94140625 C10.0962413 11.93881332 10.09482635 12.9362204 10.09336853 13.96385193 C10.08775114 17.16343124 10.07519571 20.36294169 10.0625 23.5625 C10.05748724 25.72591045 10.05292395 27.88932199 10.04882812 30.05273438 C10.03777606 35.36851629 10.02049979 40.68424646 10 46 C6.7 46 3.4 46 0 46 C0 30.82 0 15.64 0 0 Z " fill="#FAEFF2" transform="translate(439,60)"/>
<path d="M0 0 C2.38671875 0.15234375 2.38671875 0.15234375 5 1 C6.58203125 3.06640625 6.58203125 3.06640625 7.8125 5.5625 C8.23144531 6.38878906 8.65039062 7.21507812 9.08203125 8.06640625 C9.38496094 8.70449219 9.68789063 9.34257812 10 10 C10.33 7.03 10.66 4.06 11 1 C12.32 0.67 13.64 0.34 15 0 C16 1 16 1 16.11352539 2.94946289 C16.10828857 3.7821167 16.10305176 4.61477051 16.09765625 5.47265625 C16.09443359 6.37177734 16.09121094 7.27089844 16.08789062 8.19726562 C16.07951172 9.14279297 16.07113281 10.08832031 16.0625 11.0625 C16.05798828 12.01189453 16.05347656 12.96128906 16.04882812 13.93945312 C16.0370011 16.29303065 16.02052025 18.64648477 16 21 C14.35 21.33 12.7 21.66 11 22 C10.20602761 20.75146327 9.41492783 19.50109957 8.625 18.25 C8.18414062 17.55390625 7.74328125 16.8578125 7.2890625 16.140625 C6.09120143 14.15144965 5.03843052 12.07686104 4 10 C3.67 13.96 3.34 17.92 3 22 C1.68 22 0.36 22 -1 22 C-1.02887814 18.52085059 -1.04675687 15.04173169 -1.0625 11.5625 C-1.07087891 10.56927734 -1.07925781 9.57605469 -1.08789062 8.55273438 C-1.09111328 7.60849609 -1.09433594 6.66425781 -1.09765625 5.69140625 C-1.10289307 4.81685791 -1.10812988 3.94230957 -1.11352539 3.04125977 C-1 1 -1 1 0 0 Z " fill="#F2DADF" transform="translate(394,278)"/>
<path d="M0 0 C3.50730523 0.05646824 6.1489846 0.4154912 9.25 2.1875 C12.84744781 6.09204701 12.88653463 9.40988382 12.71484375 14.546875 C12.25 17.1875 12.25 17.1875 9.875 20.375 C5.77634874 23.09760527 0.97619704 22.81053916 -3.75 22.1875 C-5.33937556 20.59812444 -4.87981143 18.94850154 -4.8828125 16.75 C-4.88410156 15.85539062 -4.88539063 14.96078125 -4.88671875 14.0390625 C-4.88091797 12.62753906 -4.88091797 12.62753906 -4.875 11.1875 C-4.87886719 10.24648438 -4.88273438 9.30546875 -4.88671875 8.3359375 C-4.88542969 7.44132812 -4.88414062 6.54671875 -4.8828125 5.625 C-4.88112061 4.38556641 -4.88112061 4.38556641 -4.87939453 3.12109375 C-4.64169101 -0.43100417 -3.72024623 0.18601231 0 0 Z M0.25 4.1875 C0.25 8.8075 0.25 13.4275 0.25 18.1875 C5.03524093 18.74378751 5.03524093 18.74378751 7.0625 16.5625 C8.60378195 13.4799361 8.74693476 11.59505267 8.25 8.1875 C6.62419918 5.72797777 6.62419918 5.72797777 4.25 4.1875 C2.93 4.1875 1.61 4.1875 0.25 4.1875 Z " fill="#F1D5DB" transform="translate(239.75,277.8125)"/>
<path d="M0 0 C3.85750102 0.07631747 6.37742069 0.46718879 9.25 3.25 C9.6875 6.8125 9.6875 6.8125 9.25 10.25 C8.59 10.91 7.93 11.57 7.25 12.25 C7.745 13.1575 8.24 14.065 8.75 15 C10.25 18.25 10.25 18.25 10.25 22.25 C8.93 22.25 7.61 22.25 6.25 22.25 C5.98445312 21.68410156 5.71890625 21.11820312 5.4453125 20.53515625 C4.91550781 19.43494141 4.91550781 19.43494141 4.375 18.3125 C4.02695313 17.58160156 3.67890625 16.85070312 3.3203125 16.09765625 C2.3815023 14.08667541 2.3815023 14.08667541 0.25 13.25 C0.25 16.22 0.25 19.19 0.25 22.25 C-1.4 22.25 -3.05 22.25 -4.75 22.25 C-4.77887814 18.77085059 -4.79675687 15.29173169 -4.8125 11.8125 C-4.82087891 10.81927734 -4.82925781 9.82605469 -4.83789062 8.80273438 C-4.84111328 7.85849609 -4.84433594 6.91425781 -4.84765625 5.94140625 C-4.85289307 5.06685791 -4.85812988 4.19230957 -4.86352539 3.29125977 C-4.66134386 -0.34409452 -3.81054063 0.25403604 0 0 Z M0.25 4.25 C0.25 5.9 0.25 7.55 0.25 9.25 C1.57 9.25 2.89 9.25 4.25 9.25 C4.58 8.26 4.91 7.27 5.25 6.25 C4.92 5.59 4.59 4.93 4.25 4.25 C2.93 4.25 1.61 4.25 0.25 4.25 Z " fill="#F0D3D9" transform="translate(168.75,277.75)"/>
<path d="M0 0 C1.32 0 2.64 0 4 0 C5.17780436 2.91229133 6.34025075 5.83047678 7.5 8.75 C8.00080078 9.9875 8.00080078 9.9875 8.51171875 11.25 C8.82753906 12.04921875 9.14335937 12.8484375 9.46875 13.671875 C9.90864258 14.77160645 9.90864258 14.77160645 10.35742188 15.89355469 C11 18 11 18 11 22 C9.35 21.67 7.7 21.34 6 21 C5.67 20.01 5.34 19.02 5 18 C2.69 17.67 0.38 17.34 -2 17 C-2.99 19.475 -2.99 19.475 -4 22 C-5.32 22 -6.64 22 -8 22 C-7.26651604 17.34237688 -5.67128952 13.13319326 -4 8.75 C-3.72671875 8.0178125 -3.4534375 7.285625 -3.171875 6.53125 C-1.13225446 1.13225446 -1.13225446 1.13225446 0 0 Z M1 7 C0.67 8.98 0.34 10.96 0 13 C1.32 12.67 2.64 12.34 4 12 C3.34 10.35 2.68 8.7 2 7 C1.67 7 1.34 7 1 7 Z " fill="#F2DBE0" transform="translate(190,278)"/>
<path d="M0 0 C2.3125 0.1875 2.3125 0.1875 5 1 C6.8125 3.5625 6.8125 3.5625 8 6 C8.86625 4.515 8.86625 4.515 9.75 3 C10.4925 2.01 11.235 1.02 12 0 C13.32 0 14.64 0 16 0 C15.56287545 3.05987182 15.06268892 4.90712753 13.3125 7.5 C11.68816733 9.91547743 11.68816733 9.91547743 12.625 12.4375 C13.07875 13.283125 13.5325 14.12875 14 15 C14.53625 16.093125 15.0725 17.18625 15.625 18.3125 C16.305625 19.6428125 16.305625 19.6428125 17 21 C15.35 21.33 13.7 21.66 12 22 C10.68 20.02 9.36 18.04 8 16 C7.4225 16.99 6.845 17.98 6.25 19 C5.5075 19.99 4.765 20.98 4 22 C2.68 22 1.36 22 0 22 C0.48662294 19.37223611 1.11969601 17.82045598 2.625 15.5625 C4.22145739 13.11646944 4.22145739 13.11646944 3.875 10.5 C2.90834194 7.73811984 1.51139885 5.49709376 0 3 C0 2.01 0 1.02 0 0 Z " fill="#F2DBE0" transform="translate(292,278)"/>
<path d="M0 0 C1.65322266 0.01740234 1.65322266 0.01740234 3.33984375 0.03515625 C4.99693359 0.04869141 4.99693359 0.04869141 6.6875 0.0625 C7.54214844 0.07410156 8.39679688 0.08570313 9.27734375 0.09765625 C9.27734375 1.41765625 9.27734375 2.73765625 9.27734375 4.09765625 C6.63734375 4.09765625 3.99734375 4.09765625 1.27734375 4.09765625 C1.27734375 5.74765625 1.27734375 7.39765625 1.27734375 9.09765625 C3.58734375 9.09765625 5.89734375 9.09765625 8.27734375 9.09765625 C8.27734375 10.08765625 8.27734375 11.07765625 8.27734375 12.09765625 C5.96734375 12.09765625 3.65734375 12.09765625 1.27734375 12.09765625 C1.27734375 14.07765625 1.27734375 16.05765625 1.27734375 18.09765625 C3.91734375 18.09765625 6.55734375 18.09765625 9.27734375 18.09765625 C9.27734375 19.41765625 9.27734375 20.73765625 9.27734375 22.09765625 C7.29824977 22.12452178 5.31905404 22.14399 3.33984375 22.16015625 C2.23769531 22.17175781 1.13554687 22.18335938 0 22.1953125 C-2.72265625 22.09765625 -2.72265625 22.09765625 -3.72265625 21.09765625 C-3.82146422 19.62112961 -3.8534487 18.13998389 -3.85546875 16.66015625 C-3.85675781 15.76554687 -3.85804688 14.8709375 -3.859375 13.94921875 C-3.85357422 12.53769531 -3.85357422 12.53769531 -3.84765625 11.09765625 C-3.85152344 10.15664063 -3.85539062 9.215625 -3.859375 8.24609375 C-3.85808594 7.35148437 -3.85679687 6.456875 -3.85546875 5.53515625 C-3.85377686 4.29572266 -3.85377686 4.29572266 -3.85205078 3.03125 C-3.64542078 -0.05650395 -3.12489625 0.1120838 0 0 Z " fill="#EECCD3" transform="translate(334.72265625,277.90234375)"/>
<path d="M0 0 C1.65322266 0.01740234 1.65322266 0.01740234 3.33984375 0.03515625 C4.99693359 0.04869141 4.99693359 0.04869141 6.6875 0.0625 C7.54214844 0.07410156 8.39679688 0.08570313 9.27734375 0.09765625 C9.27734375 1.41765625 9.27734375 2.73765625 9.27734375 4.09765625 C6.63734375 4.09765625 3.99734375 4.09765625 1.27734375 4.09765625 C1.27734375 5.74765625 1.27734375 7.39765625 1.27734375 9.09765625 C3.58734375 9.09765625 5.89734375 9.09765625 8.27734375 9.09765625 C8.27734375 10.08765625 8.27734375 11.07765625 8.27734375 12.09765625 C5.96734375 12.09765625 3.65734375 12.09765625 1.27734375 12.09765625 C1.27734375 14.07765625 1.27734375 16.05765625 1.27734375 18.09765625 C3.91734375 18.09765625 6.55734375 18.09765625 9.27734375 18.09765625 C9.27734375 19.41765625 9.27734375 20.73765625 9.27734375 22.09765625 C7.29824977 22.12452178 5.31905404 22.14399 3.33984375 22.16015625 C2.23769531 22.17175781 1.13554687 22.18335938 0 22.1953125 C-2.72265625 22.09765625 -2.72265625 22.09765625 -3.72265625 21.09765625 C-3.82146422 19.62112961 -3.8534487 18.13998389 -3.85546875 16.66015625 C-3.85675781 15.76554687 -3.85804688 14.8709375 -3.859375 13.94921875 C-3.85357422 12.53769531 -3.85357422 12.53769531 -3.84765625 11.09765625 C-3.85152344 10.15664063 -3.85539063 9.215625 -3.859375 8.24609375 C-3.85808594 7.35148437 -3.85679687 6.456875 -3.85546875 5.53515625 C-3.85377686 4.29572266 -3.85377686 4.29572266 -3.85205078 3.03125 C-3.64542078 -0.05650395 -3.12489625 0.1120838 0 0 Z " fill="#EECCD3" transform="translate(221.72265625,277.90234375)"/>
<path d="M0 0 C1.51400391 0.01740234 1.51400391 0.01740234 3.05859375 0.03515625 C4.07050781 0.04417969 5.08242188 0.05320312 6.125 0.0625 C7.29869141 0.07990234 7.29869141 0.07990234 8.49609375 0.09765625 C8.49609375 1.41765625 8.49609375 2.73765625 8.49609375 4.09765625 C5.85609375 4.09765625 3.21609375 4.09765625 0.49609375 4.09765625 C0.49609375 5.74765625 0.49609375 7.39765625 0.49609375 9.09765625 C2.80609375 9.09765625 5.11609375 9.09765625 7.49609375 9.09765625 C7.49609375 10.08765625 7.49609375 11.07765625 7.49609375 12.09765625 C5.18609375 12.09765625 2.87609375 12.09765625 0.49609375 12.09765625 C0.49609375 14.07765625 0.49609375 16.05765625 0.49609375 18.09765625 C3.13609375 18.09765625 5.77609375 18.09765625 8.49609375 18.09765625 C8.49609375 19.41765625 8.49609375 20.73765625 8.49609375 22.09765625 C4.53609375 22.09765625 0.57609375 22.09765625 -3.50390625 22.09765625 C-3.53073826 18.6184389 -3.55066295 15.13942586 -3.56640625 11.66015625 C-3.57478516 10.66693359 -3.58316406 9.67371094 -3.59179688 8.65039062 C-3.59501953 7.70615234 -3.59824219 6.76191406 -3.6015625 5.7890625 C-3.60679932 4.91451416 -3.61203613 4.03996582 -3.61743164 3.13891602 C-3.44783341 0.08943037 -3.06749301 0.11963701 0 0 Z " fill="#F1D9DE" transform="translate(379.50390625,277.90234375)"/>
<path d="M0 0 C1.51400391 0.01740234 1.51400391 0.01740234 3.05859375 0.03515625 C4.07050781 0.04417969 5.08242188 0.05320312 6.125 0.0625 C7.29869141 0.07990234 7.29869141 0.07990234 8.49609375 0.09765625 C8.49609375 1.41765625 8.49609375 2.73765625 8.49609375 4.09765625 C5.85609375 4.09765625 3.21609375 4.09765625 0.49609375 4.09765625 C0.49609375 5.74765625 0.49609375 7.39765625 0.49609375 9.09765625 C2.80609375 9.09765625 5.11609375 9.09765625 7.49609375 9.09765625 C7.49609375 10.08765625 7.49609375 11.07765625 7.49609375 12.09765625 C5.18609375 12.09765625 2.87609375 12.09765625 0.49609375 12.09765625 C0.49609375 14.07765625 0.49609375 16.05765625 0.49609375 18.09765625 C3.13609375 18.09765625 5.77609375 18.09765625 8.49609375 18.09765625 C8.49609375 19.41765625 8.49609375 20.73765625 8.49609375 22.09765625 C4.53609375 22.09765625 0.57609375 22.09765625 -3.50390625 22.09765625 C-3.53073826 18.6184389 -3.55066295 15.13942586 -3.56640625 11.66015625 C-3.57478516 10.66693359 -3.58316406 9.67371094 -3.59179688 8.65039062 C-3.59501953 7.70615234 -3.59824219 6.76191406 -3.6015625 5.7890625 C-3.60679932 4.91451416 -3.61203613 4.03996582 -3.61743164 3.13891602 C-3.44783341 0.08943037 -3.06749301 0.11963701 0 0 Z " fill="#F1D9DE" transform="translate(280.50390625,277.90234375)"/>
<path d="M0 0 C1.22589844 0.15275391 1.22589844 0.15275391 2.4765625 0.30859375 C3.41628906 0.43427734 3.41628906 0.43427734 4.375 0.5625 C4.705 1.8825 5.035 3.2025 5.375 4.5625 C2.375 4.5625 -0.625 4.5625 -3.625 4.5625 C-5.57643115 7.43225169 -5.61430952 8.68864763 -5.3125 12.25 C-4.97580266 15.39458283 -4.97580266 15.39458283 -3.625 16.5625 C-2.10571962 16.63429964 -0.58332518 16.64642007 0.9375 16.625 C1.76378906 16.61597656 2.59007812 16.60695313 3.44140625 16.59765625 C4.07949219 16.58605469 4.71757812 16.57445312 5.375 16.5625 C5 18.5 5 18.5 4.375 20.5625 C1.13603501 22.1819825 -2.12399644 22.1181086 -5.625 21.5625 C-8.625 19.75 -8.625 19.75 -10.625 16.5625 C-11.51614647 11.30236995 -11.52411556 7.06102593 -8.75 2.4375 C-5.53391815 -0.40021928 -4.1522968 -0.53386673 0 0 Z " fill="#F3DDE1" transform="translate(320.625,278.4375)"/>
<path d="M0 0 C5.28 0 10.56 0 16 0 C16 1.32 16 2.64 16 4 C14.02 4 12.04 4 10 4 C10 9.94 10 15.88 10 22 C8.68 22 7.36 22 6 22 C6 16.06 6 10.12 6 4 C4.02 4 2.04 4 0 4 C0 2.68 0 1.36 0 0 Z " fill="#F1D6DB" transform="translate(414,278)"/>
<path d="M0 0 C5.28 0 10.56 0 16 0 C16 1.32 16 2.64 16 4 C14.02 4 12.04 4 10 4 C10 9.94 10 15.88 10 22 C8.68 22 7.36 22 6 22 C6 16.06 6 10.12 6 4 C4.02 4 2.04 4 0 4 C0 2.68 0 1.36 0 0 Z " fill="#F1D6DB" transform="translate(199,278)"/>
<path d="M0 0 C1.98 0.495 1.98 0.495 4 1 C4 6.61 4 12.22 4 18 C6.31 18 8.62 18 11 18 C11 19.32 11 20.64 11 22 C9.18757948 22.02687279 7.37504767 22.04633715 5.5625 22.0625 C4.55316406 22.07410156 3.54382813 22.08570313 2.50390625 22.09765625 C0 22 0 22 -1 21 C-1.09880797 19.52347336 -1.13079245 18.04232764 -1.1328125 16.5625 C-1.13410156 15.66789062 -1.13539063 14.77328125 -1.13671875 13.8515625 C-1.13091797 12.44003906 -1.13091797 12.44003906 -1.125 11 C-1.12886719 10.05898438 -1.13273437 9.11796875 -1.13671875 8.1484375 C-1.13542969 7.25382812 -1.13414062 6.35921875 -1.1328125 5.4375 C-1.13112061 4.19806641 -1.13112061 4.19806641 -1.12939453 2.93359375 C-1 1 -1 1 0 0 Z " fill="#ECC8D0" transform="translate(363,278)"/>
<path d="M0 0 C1.98 0.495 1.98 0.495 4 1 C4 6.61 4 12.22 4 18 C6.31 18 8.62 18 11 18 C11 19.32 11 20.64 11 22 C9.18757948 22.02687279 7.37504767 22.04633715 5.5625 22.0625 C4.55316406 22.07410156 3.54382813 22.08570313 2.50390625 22.09765625 C0 22 0 22 -1 21 C-1.09880797 19.52347336 -1.13079245 18.04232764 -1.1328125 16.5625 C-1.13410156 15.66789062 -1.13539063 14.77328125 -1.13671875 13.8515625 C-1.13091797 12.44003906 -1.13091797 12.44003906 -1.125 11 C-1.12886719 10.05898438 -1.13273437 9.11796875 -1.13671875 8.1484375 C-1.13542969 7.25382812 -1.13414062 6.35921875 -1.1328125 5.4375 C-1.13112061 4.19806641 -1.13112061 4.19806641 -1.12939453 2.93359375 C-1 1 -1 1 0 0 Z " fill="#ECC8D0" transform="translate(349,278)"/>
<path d="M0 0 C3.3 0 6.6 0 10 0 C10 3.3 10 6.6 10 10 C6.7 10 3.4 10 0 10 C0 6.7 0 3.4 0 0 Z " fill="#F5DEE3" transform="translate(439,43)"/>
<path d="M0 0 C1.32 0 2.64 0 4 0 C4.24862931 2.98355176 4.18991433 4.64865849 2.75 7.3125 C1 9 1 9 -3 9 C-2.01 6.03 -1.02 3.06 0 0 Z " fill="#EFD1D7" transform="translate(434,277)"/>
<path d="M0 0 C1.32 0.33 2.64 0.66 4 1 C3.01 3.64 2.02 6.28 1 9 C-0.32 9 -1.64 9 -3 9 C-2.25 2.25 -2.25 2.25 0 0 Z " fill="#F0D4D9" transform="translate(269,277)"/>
<path d="M0 0 C3.4375 0.4375 3.4375 0.4375 5.375 1.9375 C5.725625 2.4325 6.07625 2.9275 6.4375 3.4375 C6.1075 4.0975 5.7775 4.7575 5.4375 5.4375 C4.7775 4.7775 4.1175 4.1175 3.4375 3.4375 C-0.40708427 3.22391199 -3.87870978 3.25868713 -7.5625 4.4375 C-5.11203627 1.30090643 -4.03256326 0.49522707 0 0 Z " fill="#39B280" transform="translate(504.5625,165.5625)"/>
<path d="M0 0 C0.66 0.33 1.32 0.66 2 1 C1.34 1.66 0.68 2.32 0 3 C0.33 3.66 0.66 4.32 1 5 C-1.64 5.33 -4.28 5.66 -7 6 C-4.74259377 3.66475218 -2.7194239 1.81294927 0 0 Z " fill="#43B687" transform="translate(105,195)"/>
</svg>
